/* XPM */
static char *a2351f17d2c847b7a6b97d579a7dafdcBuvQNcUSzyd6DmOj[] = {
/* columns rows colors chars-per-pixel */
"60 60 29 1 ",
"  c None",
". c #2C2A0A",
"X c #4F1813",
"o c #4F1914",
"O c #501914",
"+ c #641E17",
"@ c #651F18",
"# c #6A6521",
"$ c #81251B",
"% c #81261B",
"& c #81261C",
"* c #913C1C",
"= c #EA3005",
"- c #EA3105",
"; c #898328",
": c #8A8428",
"> c #8A8429",
", c #FFB200",
"< c #FFB300",
"1 c #BCC8D8",
"2 c #BCC9D8",
"3 c #BCC9D9",
"4 c #CED9E7",
"5 c #CEDAE7",
"6 c #CEDAE8",
"7 c #FEFEFE",
"8 c #FFFEFE",
"9 c #FFFFFE",
"0 c white",
/* pixels */
"                                                            ",
"                                                            ",
"                                                            ",
"                                                            ",
"                                                            ",
"                                                            ",
"                                                            ",
"                                                            ",
"                                                            ",
"                                                            ",
"                                   ===                      ",
"                                  ====                      ",
"                                 ======                     ",
"                                   =====  =                 ",
"                                     =======                ",
"                                       =====                ",
"                                       ====                 ",
"                                        ===                 ",
"                                      0  =<=                ",
"                                      60 =<<<<              ",
"                                      660<<<<<<             ",
"                                 000  4*******<<            ",
"                                 0664*****$$$$**<           ",
"                                  4****$$$$$&0$$*<          ",
"                                  ****$$$$$$000$$*<         ",
"                             00  X**$$$$$&00000$0$*<        ",
"                             004*X$$$$$$&300340300$<        ",
"                              0**X$$$$$$&3303300300<        ",
"                              4**X$&00XOXo31XX60330<        ",
"                              **$$O004;::3O033o3XX2<        ",
"                              **$&664#::::300330330<        ",
"                             X*$$$+X###::;000300000<        ",
"                             X$&0+++X####:04:00664<         ",
"                             X&04++;:..#####:64:#           ",
"                             X$$+++::##... #####            ",
"                              X+++::#####                   ",
"                              X+++#######                   ",
"                              +X++####...                   ",
"                 0            ++XX....::;                   ",
"                06          00$@0+###;:::::                 ",
"            **X**6          0*&04+####:::::.;               ",
"           *$$X$$**  0     X**$&4+#####::::.::;             ",
"         X*$$+X#$$$XX60  00X$$$$$+######:::.::::;           ",
"         X$$+++X##.:$$6  0*X$$$$:++########.:::::;          ",
"    **  *$X++    #.#::$$X**X$$$:##++#######.#::::;          ",
"   $$$**$$X+       .##:.$$$$X::### ++#####.####::;          ",
"   +$$$$$++X        ###.::::.####    ####.########          ",
"    ++$$++            #.####.###      ...########           ",
"     ++++              .#####.          ########            ",
"                                                            ",
"                                                            ",
"                                                            ",
"                                                            ",
"                                                            ",
"                                                            ",
"                                                            ",
"                                                            ",
"                                                            ",
"                                                            ",
"                                                            "
};
